<svg width="890" height="514" viewBox="0 0 890 514" fill="none" xmlns="http://www.w3.org/2000/svg">
<rect width="890" height="514" rx="60" fill="#888888"/>
<rect x="131" y="167" width="21" height="169" fill="#D9D9D9"/>
<rect x="189" y="167" width="21" height="169" fill="#D9D9D9"/>
<rect x="483" y="168" width="21" height="169" fill="#D9D9D9"/>
<rect x="793" y="168" width="21" height="169" fill="#D9D9D9"/>
<rect x="430" y="167" width="21" height="169" transform="rotate(90 430 167)" fill="#D9D9D9"/>
<rect x="431" y="236" width="21" height="169" transform="rotate(90 431 236)" fill="#D9D9D9"/>
<rect x="432" y="315" width="21" height="169" transform="rotate(90 432 315)" fill="#D9D9D9"/>
<rect x="74" y="167" width="21" height="169" fill="#D9D9D9"/>
<rect x="641" y="236" width="21" height="121" transform="rotate(90 641 236)" fill="#D9D9D9"/>
<rect x="811" y="236" width="21" height="121" transform="rotate(90 811 236)" fill="#D9D9D9"/>
<rect x="811" y="168" width="21" height="121" transform="rotate(90 811 168)" fill="#D9D9D9"/>
<rect x="642" y="316" width="21" height="122" transform="rotate(90 642 316)" fill="#D9D9D9"/>
<rect x="812" y="316" width="21" height="122" transform="rotate(90 812 316)" fill="#D9D9D9"/>
</svg>
