<svg width="567" height="806" viewBox="0 0 567 806" fill="none" xmlns="http://www.w3.org/2000/svg">
<rect width="567" height="806" fill="url(#paint0_radial_35_594)"/>
<path d="M57 154C57 131.909 74.9086 114 97 114H510V519H57V154Z" fill="#959595"/>
<rect x="126" y="474" width="263" height="21" transform="rotate(90 126 474)" fill="#D9D9D9"/>
<rect x="120" y="727" width="263" height="21" fill="#D9D9D9"/>
<rect x="89" y="45" width="386" height="21" fill="#D9D9D9"/>
<rect x="176" y="683" width="263" height="21" fill="#D9D9D9"/>
<rect x="239" y="630" width="263" height="21" fill="#D9D9D9"/>
<rect x="187" y="476" width="224" height="21" transform="rotate(90 187 476)" fill="#D9D9D9"/>
<rect x="249" y="476" width="168" height="21" transform="rotate(90 249 476)" fill="#D9D9D9"/>
<rect x="373" y="476" width="85" height="21" transform="rotate(90 373 476)" fill="#D9D9D9"/>
<path d="M215.481 393H180.982L233.548 240.727H275.037L327.529 393H293.03L254.887 275.524H253.698L215.481 393ZM213.325 333.147H294.814V358.278H213.325V333.147ZM378.051 240.727V393H345.857V240.727H378.051Z" fill="#DF071E"/>
<circle cx="114" cy="476" r="25" fill="#070707"/>
<circle cx="114" cy="736" r="25" fill="#070707"/>
<circle cx="176" cy="476" r="25" fill="#070707"/>
<circle cx="176" cy="686" r="25" fill="#070707"/>
<circle cx="238" cy="476" r="25" fill="#070707"/>
<circle cx="238" cy="634" r="25" fill="#070707"/>
<circle cx="300" cy="476" r="25" fill="#5B1A1C"/>
<circle cx="363" cy="570" r="25" fill="#5B1A1C"/>
<circle cx="362" cy="476" r="25" fill="#070707"/>
<circle cx="80" cy="56" r="25" fill="#070707"/>
<circle cx="485" cy="56" r="25" fill="#070707"/>
<rect x="367" y="620" width="143" height="138" fill="#070707"/>
<path d="M423.147 685.82H418.481C418.396 685.217 418.222 684.68 417.959 684.212C417.696 683.736 417.359 683.331 416.947 682.997C416.535 682.663 416.059 682.408 415.519 682.23C414.987 682.053 414.408 681.964 413.783 681.964C412.653 681.964 411.67 682.244 410.832 682.805C409.994 683.359 409.344 684.169 408.882 685.234C408.42 686.293 408.19 687.578 408.19 689.091C408.19 690.646 408.42 691.953 408.882 693.011C409.351 694.07 410.004 694.869 410.842 695.408C411.68 695.948 412.65 696.218 413.751 696.218C414.369 696.218 414.94 696.136 415.466 695.973C415.999 695.81 416.471 695.572 416.883 695.259C417.295 694.94 417.636 694.553 417.906 694.098C418.183 693.643 418.374 693.125 418.481 692.543L423.147 692.564C423.026 693.565 422.724 694.531 422.241 695.462C421.766 696.385 421.123 697.212 420.313 697.944C419.511 698.668 418.552 699.244 417.437 699.67C416.329 700.089 415.075 700.298 413.676 700.298C411.73 700.298 409.99 699.858 408.456 698.977C406.929 698.097 405.722 696.822 404.834 695.153C403.953 693.484 403.513 691.463 403.513 689.091C403.513 686.712 403.96 684.688 404.855 683.018C405.75 681.349 406.964 680.078 408.499 679.205C410.033 678.324 411.759 677.884 413.676 677.884C414.94 677.884 416.112 678.061 417.192 678.416C418.278 678.771 419.241 679.29 420.079 679.972C420.917 680.646 421.599 681.474 422.124 682.454C422.657 683.434 422.998 684.556 423.147 685.82ZM426.455 700V678.182H431.068V687.184H440.432V678.182H445.034V700H440.432V690.987H431.068V700H426.455ZM453.451 678.182V700H448.838V678.182H453.451ZM457.246 700V678.182H465.854C467.509 678.182 468.919 678.498 470.083 679.13C471.248 679.755 472.136 680.625 472.747 681.74C473.365 682.848 473.673 684.126 473.673 685.575C473.673 687.024 473.361 688.303 472.736 689.411C472.111 690.518 471.205 691.381 470.019 691.999C468.84 692.617 467.413 692.926 465.737 692.926H460.25V689.229H464.991C465.879 689.229 466.61 689.077 467.186 688.771C467.768 688.459 468.201 688.029 468.485 687.482C468.776 686.928 468.922 686.293 468.922 685.575C468.922 684.851 468.776 684.219 468.485 683.679C468.201 683.132 467.768 682.71 467.186 682.411C466.603 682.106 465.865 681.953 464.97 681.953H461.859V700H457.246Z" fill="white"/>
<defs>
<radialGradient id="paint0_radial_35_594" cx="0" cy="0" r="1" gradientUnits="userSpaceOnUse" gradientTransform="translate(284 579) rotate(90.1262) scale(227.001 159.689)">
<stop stop-color="#135522"/>
<stop offset="1" stop-color="#007A1B"/>
</radialGradient>
</defs>
</svg>
