<svg width="748" height="524" viewBox="0 0 748 524" fill="none" xmlns="http://www.w3.org/2000/svg">
<rect x="1" width="742.667" height="519.548" fill="#070707"/>
<path d="M562.377 450.153C562.377 399.802 542.375 351.514 506.772 315.91C471.169 280.307 422.881 260.305 372.53 260.305C322.179 260.305 273.891 280.307 238.288 315.91C202.684 351.514 182.683 399.802 182.683 450.153L372.53 450.153H562.377Z" fill="#A40718"/>
<path d="M198.301 364.295C130.468 338.697 40.6282 383.967 4.1875 409.801V520.368H743.667L740.823 371.228C740.823 361.806 743.667 357.185 715.404 373.005C682.139 391.625 614.614 427.044 560.575 418.334C506.536 409.624 514.002 393.803 474.539 391.314C435.077 388.826 469.74 409.801 382.46 418.334C295.18 426.866 283.092 396.292 198.301 364.295Z" fill="#5B1A1C" stroke="#5B1A1C" stroke-width="7.11038"/>
<path d="M71.689 481.488L75.5374 458.307H84.819C86.5244 458.307 87.9053 458.559 88.9617 459.065C90.0257 459.571 90.769 460.272 91.1915 461.17C91.6141 462.061 91.7273 463.087 91.5311 464.249C91.3726 465.155 91.0519 465.947 90.569 466.626C90.0936 467.305 89.505 467.864 88.8032 468.301C88.1015 468.739 87.3393 469.048 86.5168 469.229L86.4715 469.456C87.3469 469.493 88.1354 469.743 88.8372 470.203C89.539 470.656 90.0634 471.297 90.4105 472.127C90.7576 472.957 90.8369 473.942 90.6482 475.081C90.4445 476.311 89.9578 477.409 89.1881 478.375C88.4184 479.333 87.3921 480.092 86.1093 480.65C84.8341 481.209 83.3286 481.488 81.5931 481.488H71.689ZM77.2692 477.481H81.2648C82.6231 477.481 83.6607 477.217 84.3775 476.689C85.0944 476.16 85.5245 475.462 85.6679 474.595C85.766 473.953 85.7018 473.387 85.4755 472.897C85.2566 472.406 84.8831 472.021 84.3549 471.742C83.8342 471.463 83.1739 471.323 82.3741 471.323H78.2766L77.2692 477.481ZM78.8426 468.007H82.4759C83.14 468.007 83.755 467.89 84.3209 467.656C84.8944 467.415 85.366 467.075 85.7358 466.637C86.1131 466.192 86.3508 465.668 86.4489 465.064C86.5847 464.219 86.3961 463.543 85.8829 463.038C85.3774 462.525 84.585 462.268 83.506 462.268H79.7934L78.8426 468.007ZM105.054 474.085L106.718 464.102H111.54L108.643 481.488H104.013L104.534 478.33H104.353C103.817 479.349 103.036 480.167 102.01 480.786C100.983 481.405 99.8175 481.714 98.5121 481.714C97.35 481.714 96.369 481.45 95.5691 480.922C94.7768 480.394 94.2146 479.643 93.8826 478.669C93.5506 477.696 93.494 476.53 93.7128 475.172L95.5691 464.102H100.391L98.6932 474.312C98.5347 475.338 98.6781 476.149 99.1233 476.745C99.5685 477.341 100.248 477.639 101.161 477.639C101.742 477.639 102.304 477.507 102.847 477.243C103.398 476.972 103.873 476.572 104.273 476.043C104.673 475.515 104.934 474.862 105.054 474.085ZM112.499 481.488L115.397 464.102H120.219L117.321 481.488H112.499ZM118.306 461.838C117.589 461.838 116.997 461.6 116.529 461.125C116.069 460.642 115.88 460.069 115.963 459.405C116.046 458.725 116.371 458.152 116.936 457.684C117.502 457.209 118.144 456.971 118.861 456.971C119.578 456.971 120.162 457.209 120.615 457.684C121.068 458.152 121.257 458.725 121.181 459.405C121.106 460.069 120.785 460.642 120.219 461.125C119.661 461.6 119.023 461.838 118.306 461.838ZM129.854 458.307L126.006 481.488H121.184L125.032 458.307H129.854ZM136.252 481.771C134.924 481.771 133.781 481.431 132.823 480.752C131.872 480.065 131.193 479.058 130.785 477.73C130.385 476.394 130.348 474.757 130.672 472.817C131.004 470.825 131.6 469.169 132.46 467.848C133.321 466.52 134.339 465.528 135.517 464.872C136.694 464.208 137.92 463.876 139.195 463.876C140.161 463.876 140.942 464.042 141.538 464.374C142.142 464.698 142.606 465.106 142.93 465.596C143.255 466.079 143.481 466.554 143.61 467.022H143.757L145.217 458.307H150.027L146.179 481.488H141.425L141.889 478.703H141.685C141.383 479.186 140.984 479.665 140.486 480.141C139.995 480.609 139.399 480.997 138.697 481.307C138.003 481.616 137.188 481.771 136.252 481.771ZM138.38 477.934C139.15 477.934 139.844 477.722 140.463 477.3C141.082 476.87 141.602 476.27 142.025 475.5C142.447 474.73 142.742 473.829 142.908 472.795C143.081 471.761 143.085 470.863 142.919 470.101C142.753 469.339 142.429 468.75 141.946 468.335C141.47 467.92 140.84 467.713 140.055 467.713C139.263 467.713 138.561 467.928 137.95 468.358C137.346 468.788 136.845 469.384 136.445 470.146C136.052 470.908 135.773 471.791 135.607 472.795C135.441 473.806 135.43 474.7 135.573 475.477C135.716 476.247 136.022 476.851 136.49 477.288C136.958 477.719 137.588 477.934 138.38 477.934ZM150.132 481.488L153.03 464.102H157.852L154.954 481.488H150.132ZM155.939 461.838C155.222 461.838 154.629 461.6 154.162 461.125C153.701 460.642 153.513 460.069 153.596 459.405C153.679 458.725 154.003 458.152 154.569 457.684C155.135 457.209 155.776 456.971 156.493 456.971C157.21 456.971 157.795 457.209 158.248 457.684C158.701 458.152 158.889 458.725 158.814 459.405C158.738 460.069 158.418 460.642 157.852 461.125C157.293 461.6 156.656 461.838 155.939 461.838ZM165.336 471.437L163.661 481.488H158.851L161.748 464.102H166.332L165.834 467.169H166.027C166.578 466.151 167.355 465.347 168.358 464.758C169.37 464.17 170.52 463.876 171.811 463.876C173.018 463.876 174.025 464.14 174.833 464.668C175.648 465.196 176.221 465.947 176.553 466.92C176.893 467.894 176.949 469.06 176.723 470.418L174.867 481.488H170.045L171.754 471.278C171.928 470.214 171.792 469.384 171.347 468.788C170.909 468.184 170.203 467.882 169.23 467.882C168.581 467.882 167.985 468.022 167.442 468.301C166.898 468.58 166.442 468.988 166.072 469.524C165.71 470.052 165.465 470.69 165.336 471.437ZM185.391 488.37C183.821 488.37 182.512 488.155 181.463 487.725C180.422 487.302 179.629 486.725 179.086 485.993C178.55 485.261 178.256 484.438 178.203 483.525L182.776 482.925C182.859 483.28 183.017 483.608 183.251 483.91C183.493 484.212 183.836 484.453 184.281 484.634C184.734 484.816 185.319 484.906 186.036 484.906C187.085 484.906 187.998 484.65 188.775 484.136C189.552 483.631 190.031 482.782 190.212 481.59L190.733 478.409H190.529C190.243 478.892 189.85 479.349 189.352 479.779C188.862 480.209 188.262 480.56 187.553 480.831C186.851 481.103 186.04 481.239 185.119 481.239C183.806 481.239 182.666 480.937 181.701 480.333C180.742 479.722 180.048 478.79 179.618 477.537C179.195 476.277 179.143 474.685 179.459 472.761C179.791 470.791 180.388 469.146 181.248 467.826C182.108 466.505 183.127 465.517 184.304 464.86C185.481 464.204 186.707 463.876 187.983 463.876C188.956 463.876 189.741 464.042 190.337 464.374C190.941 464.698 191.405 465.106 191.729 465.596C192.054 466.079 192.284 466.554 192.42 467.022H192.612L193.087 464.102H197.875L194.955 481.658C194.721 483.144 194.159 484.382 193.269 485.37C192.386 486.366 191.265 487.113 189.907 487.611C188.549 488.117 187.043 488.37 185.391 488.37ZM187.202 477.617C187.971 477.617 188.662 477.424 189.273 477.039C189.892 476.647 190.409 476.089 190.824 475.364C191.239 474.632 191.529 473.757 191.695 472.738C191.861 471.72 191.857 470.837 191.684 470.09C191.518 469.335 191.193 468.75 190.71 468.335C190.235 467.92 189.609 467.713 188.832 467.713C188.032 467.713 187.33 467.928 186.726 468.358C186.123 468.78 185.621 469.369 185.221 470.124C184.828 470.878 184.553 471.75 184.395 472.738C184.229 473.742 184.221 474.61 184.372 475.342C184.53 476.066 184.844 476.628 185.311 477.028C185.779 477.421 186.409 477.617 187.202 477.617ZM209.622 481.488L207.788 464.102H212.666L213.413 475.783H213.572L218.326 464.102H223.114L224.019 475.715H224.166L228.762 464.102H233.629L226.011 481.488H220.907L219.729 470.554H219.514L214.715 481.488H209.622ZM240.746 481.827C238.973 481.827 237.505 481.45 236.343 480.695C235.181 479.933 234.362 478.877 233.887 477.526C233.419 476.168 233.332 474.587 233.626 472.784C233.913 471.003 234.509 469.444 235.415 468.109C236.32 466.773 237.471 465.736 238.867 464.996C240.263 464.249 241.836 463.876 243.587 463.876C245.353 463.876 246.817 464.257 247.979 465.019C249.141 465.773 249.959 466.83 250.435 468.188C250.91 469.546 251.001 471.127 250.707 472.931C250.412 474.704 249.809 476.258 248.896 477.594C247.982 478.93 246.832 479.971 245.443 480.718C244.055 481.458 242.489 481.827 240.746 481.827ZM241.221 478.092C242.036 478.092 242.757 477.862 243.383 477.402C244.017 476.934 244.541 476.3 244.957 475.5C245.379 474.693 245.673 473.78 245.839 472.761C246.005 471.757 246.017 470.867 245.873 470.09C245.73 469.305 245.428 468.686 244.968 468.233C244.515 467.781 243.893 467.554 243.1 467.554C242.285 467.554 241.561 467.788 240.927 468.256C240.293 468.716 239.769 469.35 239.354 470.158C238.939 470.965 238.648 471.882 238.482 472.908C238.324 473.904 238.312 474.795 238.448 475.579C238.584 476.357 238.882 476.972 239.342 477.424C239.803 477.87 240.429 478.092 241.221 478.092ZM252.416 481.488L255.313 464.102H259.988L259.479 467.135H259.66C260.158 466.056 260.826 465.241 261.663 464.69C262.508 464.132 263.418 463.853 264.391 463.853C264.633 463.853 264.885 463.868 265.15 463.898C265.421 463.921 265.663 463.959 265.874 464.011L265.15 468.301C264.938 468.226 264.636 468.165 264.244 468.12C263.859 468.067 263.493 468.041 263.146 468.041C262.444 468.041 261.792 468.196 261.188 468.505C260.584 468.807 260.075 469.229 259.66 469.773C259.252 470.316 258.984 470.942 258.856 471.652L257.238 481.488H252.416ZM274.128 458.307L270.28 481.488H265.458L269.306 458.307H274.128ZM280.526 481.771C279.198 481.771 278.055 481.431 277.097 480.752C276.146 480.065 275.467 479.058 275.059 477.73C274.659 476.394 274.622 474.757 274.946 472.817C275.278 470.825 275.874 469.169 276.734 467.848C277.595 466.52 278.613 465.528 279.791 464.872C280.968 464.208 282.194 463.876 283.469 463.876C284.435 463.876 285.216 464.042 285.812 464.374C286.416 464.698 286.88 465.106 287.204 465.596C287.529 466.079 287.755 466.554 287.884 467.022H288.031L289.491 458.307H294.301L290.453 481.488H285.699L286.163 478.703H285.959C285.658 479.186 285.258 479.665 284.76 480.141C284.269 480.609 283.673 480.997 282.971 481.307C282.277 481.616 281.462 481.771 280.526 481.771ZM282.654 477.934C283.424 477.934 284.118 477.722 284.737 477.3C285.356 476.87 285.876 476.27 286.299 475.5C286.722 474.73 287.016 473.829 287.182 472.795C287.355 471.761 287.359 470.863 287.193 470.101C287.027 469.339 286.703 468.75 286.22 468.335C285.744 467.92 285.114 467.713 284.329 467.713C283.537 467.713 282.835 467.928 282.224 468.358C281.62 468.788 281.119 469.384 280.719 470.146C280.326 470.908 280.047 471.791 279.881 472.795C279.715 473.806 279.704 474.7 279.847 475.477C279.991 476.247 280.296 476.851 280.764 477.288C281.232 477.719 281.862 477.934 282.654 477.934ZM310.92 469.06L306.54 469.331C306.517 468.946 306.412 468.603 306.223 468.301C306.042 467.992 305.774 467.747 305.419 467.565C305.072 467.384 304.635 467.294 304.106 467.294C303.314 467.294 302.609 467.475 301.99 467.837C301.371 468.199 301.02 468.663 300.937 469.229C300.869 469.592 300.964 469.897 301.22 470.146C301.477 470.395 301.994 470.607 302.771 470.78L305.827 471.414C307.457 471.761 308.634 472.338 309.358 473.146C310.09 473.953 310.351 475.01 310.139 476.315C309.951 477.424 309.464 478.394 308.679 479.224C307.895 480.047 306.898 480.688 305.691 481.148C304.484 481.601 303.144 481.827 301.673 481.827C299.311 481.827 297.515 481.344 296.285 480.379C295.055 479.413 294.463 478.103 294.508 476.451L299.217 476.202C299.254 476.911 299.503 477.447 299.964 477.809C300.424 478.164 301.054 478.345 301.854 478.352C302.752 478.368 303.514 478.183 304.14 477.798C304.774 477.405 305.133 476.93 305.216 476.372C305.276 475.979 305.163 475.662 304.876 475.421C304.597 475.179 304.084 474.979 303.337 474.821L300.439 474.221C298.794 473.881 297.613 473.274 296.896 472.399C296.179 471.523 295.934 470.41 296.161 469.06C296.342 467.981 296.791 467.056 297.508 466.286C298.232 465.509 299.164 464.913 300.303 464.498C301.45 464.083 302.744 463.876 304.186 463.876C306.442 463.876 308.14 464.34 309.279 465.268C310.426 466.196 310.973 467.46 310.92 469.06ZM331.94 464.102L331.34 467.724H320.609L321.209 464.102H331.94ZM320.757 481.488L323.869 462.845C324.073 461.585 324.488 460.54 325.114 459.71C325.748 458.88 326.529 458.258 327.457 457.843C328.393 457.427 329.404 457.22 330.491 457.22C331.23 457.22 331.898 457.277 332.494 457.39C333.098 457.503 333.536 457.605 333.807 457.695L332.37 461.317C332.189 461.257 331.966 461.2 331.702 461.148C331.438 461.095 331.159 461.068 330.864 461.068C330.163 461.068 329.646 461.234 329.314 461.566C328.989 461.891 328.77 462.347 328.657 462.936L325.567 481.488H320.757ZM339.232 481.827C337.459 481.827 335.991 481.45 334.829 480.695C333.667 479.933 332.848 478.877 332.373 477.526C331.905 476.168 331.818 474.587 332.112 472.784C332.399 471.003 332.995 469.444 333.901 468.109C334.806 466.773 335.957 465.736 337.353 464.996C338.749 464.249 340.322 463.876 342.073 463.876C343.839 463.876 345.303 464.257 346.465 465.019C347.627 465.773 348.446 466.83 348.921 468.188C349.396 469.546 349.487 471.127 349.193 472.931C348.898 474.704 348.295 476.258 347.382 477.594C346.469 478.93 345.318 479.971 343.929 480.718C342.541 481.458 340.975 481.827 339.232 481.827ZM339.707 478.092C340.522 478.092 341.243 477.862 341.869 477.402C342.503 476.934 343.028 476.3 343.443 475.5C343.865 474.693 344.159 473.78 344.326 472.761C344.492 471.757 344.503 470.867 344.359 470.09C344.216 469.305 343.914 468.686 343.454 468.233C343.001 467.781 342.379 467.554 341.586 467.554C340.771 467.554 340.047 467.788 339.413 468.256C338.779 468.716 338.255 469.35 337.84 470.158C337.425 470.965 337.134 471.882 336.968 472.908C336.81 473.904 336.798 474.795 336.934 475.579C337.07 476.357 337.368 476.972 337.828 477.424C338.289 477.87 338.915 478.092 339.707 478.092ZM350.902 481.488L353.799 464.102H358.474L357.965 467.135H358.146C358.644 466.056 359.312 465.241 360.149 464.69C360.995 464.132 361.904 463.853 362.877 463.853C363.119 463.853 363.372 463.868 363.636 463.898C363.907 463.921 364.149 463.959 364.36 464.011L363.636 468.301C363.424 468.226 363.123 468.165 362.73 468.12C362.345 468.067 361.979 468.041 361.632 468.041C360.93 468.041 360.278 468.196 359.674 468.505C359.07 468.807 358.561 469.229 358.146 469.773C357.738 470.316 357.471 470.942 357.342 471.652L355.724 481.488H350.902ZM383.466 464.102L382.866 467.724H372.385L372.996 464.102H383.466ZM376.052 459.937H380.874L378.18 476.145C378.105 476.59 378.116 476.938 378.214 477.187C378.312 477.428 378.475 477.598 378.701 477.696C378.935 477.794 379.214 477.843 379.539 477.843C379.765 477.843 379.995 477.824 380.229 477.786C380.463 477.741 380.64 477.707 380.761 477.685L380.942 481.273C380.671 481.356 380.305 481.446 379.844 481.544C379.392 481.642 378.856 481.703 378.237 481.725C377.06 481.771 376.064 481.616 375.249 481.261C374.434 480.899 373.849 480.345 373.494 479.598C373.14 478.85 373.064 477.911 373.268 476.779L376.052 459.937ZM390.603 471.437L388.928 481.488H384.117L387.966 458.307H392.64L391.192 467.169H391.384C391.942 466.143 392.708 465.339 393.682 464.758C394.655 464.17 395.806 463.876 397.134 463.876C398.341 463.876 399.349 464.14 400.156 464.668C400.971 465.189 401.548 465.939 401.888 466.92C402.228 467.894 402.284 469.06 402.058 470.418L400.201 481.488H395.391L397.089 471.278C397.262 470.207 397.123 469.373 396.67 468.777C396.225 468.18 395.515 467.882 394.542 467.882C393.885 467.882 393.282 468.022 392.731 468.301C392.18 468.58 391.716 468.988 391.339 469.524C390.969 470.052 390.724 470.69 390.603 471.437ZM411.851 481.827C410.071 481.827 408.595 481.465 407.426 480.741C406.256 480.009 405.434 478.975 404.958 477.639C404.49 476.296 404.411 474.708 404.721 472.874C405.022 471.086 405.63 469.516 406.543 468.165C407.464 466.815 408.618 465.762 410.006 465.007C411.395 464.253 412.942 463.876 414.647 463.876C415.794 463.876 416.832 464.06 417.76 464.43C418.696 464.792 419.473 465.343 420.092 466.083C420.71 466.815 421.133 467.732 421.359 468.833C421.593 469.935 421.59 471.225 421.348 472.704L421.133 474.029H406.464L406.928 471.04H417.07C417.183 470.346 417.137 469.731 416.934 469.195C416.73 468.66 416.39 468.241 415.915 467.939C415.44 467.63 414.855 467.475 414.161 467.475C413.451 467.475 412.787 467.649 412.168 467.996C411.55 468.343 411.029 468.799 410.606 469.365C410.191 469.924 409.923 470.531 409.803 471.188L409.271 474.153C409.12 475.066 409.15 475.825 409.361 476.428C409.58 477.032 409.957 477.485 410.493 477.786C411.029 478.081 411.708 478.228 412.531 478.228C413.066 478.228 413.568 478.152 414.036 478.002C414.511 477.851 414.934 477.628 415.304 477.334C415.674 477.032 415.975 476.658 416.209 476.213L420.612 476.507C420.205 477.579 419.586 478.515 418.756 479.315C417.926 480.107 416.926 480.726 415.757 481.171C414.594 481.609 413.293 481.827 411.851 481.827ZM442.69 464.102L442.09 467.724H431.36L431.96 464.102H442.69ZM431.507 481.488L434.62 462.845C434.823 461.585 435.238 460.54 435.865 459.71C436.498 458.88 437.279 458.258 438.208 457.843C439.143 457.427 440.154 457.22 441.241 457.22C441.981 457.22 442.648 457.277 443.245 457.39C443.848 457.503 444.286 457.605 444.558 457.695L443.12 461.317C442.939 461.257 442.716 461.2 442.452 461.148C442.188 461.095 441.909 461.068 441.615 461.068C440.913 461.068 440.396 461.234 440.064 461.566C439.739 461.891 439.521 462.347 439.407 462.936L436.317 481.488H431.507ZM455.11 474.085L456.774 464.102H461.595L458.698 481.488H454.068L454.589 478.33H454.408C453.872 479.349 453.091 480.167 452.065 480.786C451.039 481.405 449.873 481.714 448.567 481.714C447.405 481.714 446.424 481.45 445.624 480.922C444.832 480.394 444.27 479.643 443.938 478.669C443.606 477.696 443.549 476.53 443.768 475.172L445.624 464.102H450.446L448.748 474.312C448.59 475.338 448.733 476.149 449.179 476.745C449.624 477.341 450.303 477.639 451.216 477.639C451.797 477.639 452.359 477.507 452.902 477.243C453.453 476.972 453.929 476.572 454.329 476.043C454.729 475.515 454.989 474.862 455.11 474.085ZM474.7 464.102L474.1 467.724H463.619L464.23 464.102H474.7ZM467.286 459.937H472.108L469.414 476.145C469.338 476.59 469.35 476.938 469.448 477.187C469.546 477.428 469.708 477.598 469.935 477.696C470.169 477.794 470.448 477.843 470.772 477.843C470.999 477.843 471.229 477.824 471.463 477.786C471.697 477.741 471.874 477.707 471.995 477.685L472.176 481.273C471.904 481.356 471.538 481.446 471.078 481.544C470.625 481.642 470.089 481.703 469.471 481.725C468.293 481.771 467.297 481.616 466.482 481.261C465.667 480.899 465.083 480.345 464.728 479.598C464.373 478.85 464.298 477.911 464.502 476.779L467.286 459.937ZM487.326 474.085L488.99 464.102H493.812L490.914 481.488H486.285L486.806 478.33H486.624C486.089 479.349 485.308 480.167 484.281 480.786C483.255 481.405 482.089 481.714 480.784 481.714C479.622 481.714 478.641 481.45 477.841 480.922C477.049 480.394 476.486 479.643 476.154 478.669C475.822 477.696 475.766 476.53 475.985 475.172L477.841 464.102H482.663L480.965 474.312C480.806 475.338 480.95 476.149 481.395 476.745C481.84 477.341 482.519 477.639 483.432 477.639C484.014 477.639 484.576 477.507 485.119 477.243C485.67 476.972 486.145 476.572 486.545 476.043C486.945 475.515 487.205 474.862 487.326 474.085ZM494.771 481.488L497.669 464.102H502.344L501.834 467.135H502.015C502.513 466.056 503.181 465.241 504.019 464.69C504.864 464.132 505.773 463.853 506.747 463.853C506.988 463.853 507.241 463.868 507.505 463.898C507.777 463.921 508.018 463.959 508.229 464.011L507.505 468.301C507.294 468.226 506.992 468.165 506.599 468.12C506.215 468.067 505.849 468.041 505.502 468.041C504.8 468.041 504.147 468.196 503.543 468.505C502.94 468.807 502.43 469.229 502.015 469.773C501.608 470.316 501.34 470.942 501.212 471.652L499.593 481.488H494.771ZM514.882 481.827C513.101 481.827 511.626 481.465 510.456 480.741C509.287 480.009 508.464 478.975 507.989 477.639C507.521 476.296 507.442 474.708 507.751 472.874C508.053 471.086 508.66 469.516 509.574 468.165C510.494 466.815 511.649 465.762 513.037 465.007C514.426 464.253 515.973 463.876 517.678 463.876C518.825 463.876 519.862 464.06 520.791 464.43C521.726 464.792 522.504 465.343 523.122 466.083C523.741 466.815 524.164 467.732 524.39 468.833C524.624 469.935 524.62 471.225 524.379 472.704L524.164 474.029H509.494L509.958 471.04H520.1C520.213 470.346 520.168 469.731 519.964 469.195C519.761 468.66 519.421 468.241 518.946 467.939C518.47 467.63 517.885 467.475 517.191 467.475C516.482 467.475 515.818 467.649 515.199 467.996C514.58 468.343 514.06 468.799 513.637 469.365C513.222 469.924 512.954 470.531 512.833 471.188L512.301 474.153C512.15 475.066 512.181 475.825 512.392 476.428C512.611 477.032 512.988 477.485 513.524 477.786C514.06 478.081 514.739 478.228 515.561 478.228C516.097 478.228 516.599 478.152 517.067 478.002C517.542 477.851 517.965 477.628 518.334 477.334C518.704 477.032 519.006 476.658 519.24 476.213L523.643 476.507C523.236 477.579 522.617 478.515 521.787 479.315C520.957 480.107 519.957 480.726 518.787 481.171C517.625 481.609 516.323 481.827 514.882 481.827Z" fill="black"/>
</svg>
