<svg width="694" height="747" viewBox="0 0 694 747" fill="none" xmlns="http://www.w3.org/2000/svg">
<path d="M181.756 256.314C138.917 259.996 88.2667 283.366 30.9427 325.934C0.187984 348.768 -1.65222e-05 368.68 -1.63221e-05 373.257C-1.6112e-05 378.064 0.135399 400.226 30.9267 423.142C88.0627 465.673 138.739 489.006 181.78 492.664L568.207 746.664L606.316 746.664C609.524 746.664 612.149 744.049 612.149 740.83L612.149 529.43L650.691 529.43L650.691 551.509C650.691 554.728 653.305 557.342 656.524 557.342L687.399 557.342C690.623 557.342 693.232 554.728 693.232 551.509L693.232 201.669C693.232 198.45 690.617 195.846 687.399 195.846L656.524 195.846C653.3 195.846 650.691 198.461 650.691 201.669L650.691 215.081L612.149 215.081L612.149 5.8542C612.149 2.6302 609.519 3.2485e-05 606.316 3.2625e-05L568.223 3.42901e-05L181.756 256.314ZM562.356 366.356C523.856 366.356 492.544 335.033 492.544 296.544C492.544 258.054 523.851 226.732 562.356 226.732L650.673 226.732L650.673 366.358L562.356 366.356ZM532.277 372.241C504.783 383.194 484.632 408.684 481.356 439.173L262.436 439.173C226.217 439.173 197.848 410.809 197.848 374.585C197.848 338.96 226.827 309.992 262.436 309.992L481.996 309.992C486.741 338.398 506.22 361.856 532.277 372.242L532.277 372.241ZM11.6107 373.267C11.6106 345.699 57.928 320.903 67.6787 314.6L67.6735 434.527C57.9182 428.22 11.6108 403.72 11.6108 373.267L11.6107 373.267ZM193.557 481.532C161.317 481.532 122.385 467.923 79.3387 441.839L79.3386 307.292C122.532 281.115 161.464 267.448 193.557 267.448L486.251 267.448C482.792 276.49 480.652 287.506 480.912 298.328L262.432 298.328C220.385 298.328 186.177 332.531 186.177 374.583C186.177 417.343 219.672 450.838 262.432 450.838L480.939 450.838C481.319 461.744 483.861 472.108 488.142 481.526L193.555 481.531L193.557 481.532ZM492.531 447.944C492.531 409.455 523.837 378.138 562.343 378.138L650.66 378.138L650.655 517.764L562.343 517.764C523.837 517.764 492.531 486.442 492.531 447.947L492.531 447.944ZM203.797 493.195L494.624 493.195C508.228 513.518 530.733 527.356 556.515 529.19L556.515 724.91L203.797 493.195ZM600.451 734.982L573.311 734.982L568.175 731.523L568.175 529.417L600.446 529.417L600.441 734.99L600.451 734.982ZM662.325 207.488L681.528 207.488L681.528 545.662L662.325 545.662L662.325 207.488ZM556.508 215.296C528.888 217.264 505.024 233.05 491.831 255.78L203.644 255.78L556.511 21.7264L556.508 215.296ZM600.451 11.5223L600.451 214.562L568.18 214.562L568.196 14.9757L573.315 11.5173L600.451 11.5223ZM162.811 308.642L104.024 322.986C104.024 322.986 79.488 371.361 104.024 425.898L162.811 440.242C126.868 370.341 162.811 308.644 162.811 308.644L162.811 308.642ZM112.295 415.902C98.196 379.329 107.529 344.314 112.295 332.976L142.753 325.549C137.967 339.789 128.821 382.013 142.753 423.346L112.295 415.902Z" fill="black"/>
</svg>
