<svg width="2056" height="2056" viewBox="0 0 2056 2056" fill="none" xmlns="http://www.w3.org/2000/svg">
<rect x="139" y="187" width="742.667" height="519.548" fill="#070707"/>
<path d="M700.377 637.153C700.377 586.802 680.375 538.514 644.772 502.91C609.169 467.307 560.881 447.305 510.53 447.305C460.179 447.305 411.891 467.307 376.288 502.91C340.684 538.514 320.683 586.802 320.683 637.153L510.53 637.153H700.377Z" fill="#A40718"/>
<path d="M336.301 551.295C268.468 525.697 178.628 570.967 142.188 596.801V707.368H881.667L878.823 558.228C878.823 548.806 881.667 544.185 853.404 560.005C820.139 578.625 752.614 614.044 698.575 605.334C644.536 596.624 652.002 580.803 612.539 578.314C573.077 575.826 607.74 596.801 520.46 605.334C433.18 613.866 421.092 583.292 336.301 551.295Z" fill="#5B1A1C" stroke="#5B1A1C" stroke-width="7.11038"/>
<path d="M209.689 668.488L213.537 645.307H222.819C224.524 645.307 225.905 645.559 226.962 646.065C228.026 646.571 228.769 647.272 229.192 648.17C229.614 649.061 229.727 650.087 229.531 651.249C229.373 652.155 229.052 652.947 228.569 653.626C228.094 654.305 227.505 654.864 226.803 655.301C226.101 655.739 225.339 656.048 224.517 656.229L224.472 656.456C225.347 656.493 226.135 656.743 226.837 657.203C227.539 657.656 228.063 658.297 228.411 659.127C228.758 659.957 228.837 660.942 228.648 662.081C228.444 663.311 227.958 664.409 227.188 665.375C226.418 666.333 225.392 667.092 224.109 667.65C222.834 668.209 221.329 668.488 219.593 668.488H209.689ZM215.269 664.481H219.265C220.623 664.481 221.661 664.217 222.378 663.689C223.094 663.16 223.525 662.462 223.668 661.595C223.766 660.953 223.702 660.387 223.475 659.897C223.257 659.406 222.883 659.021 222.355 658.742C221.834 658.463 221.174 658.323 220.374 658.323H216.277L215.269 664.481ZM216.843 655.007H220.476C221.14 655.007 221.755 654.89 222.321 654.656C222.894 654.415 223.366 654.075 223.736 653.637C224.113 653.192 224.351 652.668 224.449 652.064C224.585 651.219 224.396 650.543 223.883 650.038C223.377 649.525 222.585 649.268 221.506 649.268H217.793L216.843 655.007ZM243.054 661.085L244.718 651.102H249.54L246.643 668.488H242.013L242.534 665.33H242.353C241.817 666.349 241.036 667.167 240.01 667.786C238.983 668.405 237.818 668.714 236.512 668.714C235.35 668.714 234.369 668.45 233.569 667.922C232.777 667.394 232.215 666.643 231.883 665.669C231.551 664.696 231.494 663.53 231.713 662.172L233.569 651.102H238.391L236.693 661.312C236.535 662.338 236.678 663.149 237.123 663.745C237.568 664.341 238.248 664.639 239.161 664.639C239.742 664.639 240.304 664.507 240.847 664.243C241.398 663.972 241.873 663.572 242.273 663.043C242.673 662.515 242.934 661.862 243.054 661.085ZM250.499 668.488L253.397 651.102H258.219L255.321 668.488H250.499ZM256.306 648.838C255.589 648.838 254.997 648.6 254.529 648.125C254.069 647.642 253.88 647.069 253.963 646.405C254.046 645.725 254.371 645.152 254.936 644.684C255.502 644.209 256.144 643.971 256.861 643.971C257.578 643.971 258.162 644.209 258.615 644.684C259.068 645.152 259.257 645.725 259.181 646.405C259.106 647.069 258.785 647.642 258.219 648.125C257.661 648.6 257.023 648.838 256.306 648.838ZM267.854 645.307L264.006 668.488H259.184L263.032 645.307H267.854ZM274.252 668.771C272.924 668.771 271.781 668.431 270.823 667.752C269.872 667.065 269.193 666.058 268.785 664.73C268.385 663.394 268.348 661.757 268.672 659.817C269.004 657.825 269.6 656.169 270.46 654.848C271.321 653.52 272.339 652.528 273.517 651.872C274.694 651.208 275.92 650.876 277.195 650.876C278.161 650.876 278.942 651.042 279.538 651.374C280.142 651.698 280.606 652.106 280.93 652.596C281.255 653.079 281.481 653.554 281.61 654.022H281.757L283.217 645.307H288.027L284.179 668.488H279.425L279.889 665.703H279.685C279.383 666.186 278.984 666.665 278.486 667.141C277.995 667.609 277.399 667.997 276.697 668.307C276.003 668.616 275.188 668.771 274.252 668.771ZM276.38 664.934C277.15 664.934 277.844 664.722 278.463 664.3C279.082 663.87 279.602 663.27 280.025 662.5C280.447 661.73 280.742 660.829 280.908 659.795C281.081 658.761 281.085 657.863 280.919 657.101C280.753 656.339 280.429 655.75 279.946 655.335C279.47 654.92 278.84 654.713 278.055 654.713C277.263 654.713 276.561 654.928 275.95 655.358C275.346 655.788 274.845 656.384 274.445 657.146C274.052 657.908 273.773 658.791 273.607 659.795C273.441 660.806 273.43 661.7 273.573 662.477C273.716 663.247 274.022 663.851 274.49 664.288C274.958 664.719 275.588 664.934 276.38 664.934ZM288.132 668.488L291.03 651.102H295.852L292.954 668.488H288.132ZM293.939 648.838C293.222 648.838 292.629 648.6 292.162 648.125C291.701 647.642 291.513 647.069 291.596 646.405C291.679 645.725 292.003 645.152 292.569 644.684C293.135 644.209 293.776 643.971 294.493 643.971C295.21 643.971 295.795 644.209 296.248 644.684C296.701 645.152 296.889 645.725 296.814 646.405C296.738 647.069 296.418 647.642 295.852 648.125C295.293 648.6 294.656 648.838 293.939 648.838ZM303.336 658.437L301.661 668.488H296.851L299.748 651.102H304.332L303.834 654.169H304.027C304.578 653.151 305.355 652.347 306.358 651.758C307.37 651.17 308.52 650.876 309.811 650.876C311.018 650.876 312.025 651.14 312.833 651.668C313.648 652.196 314.221 652.947 314.553 653.92C314.893 654.894 314.949 656.06 314.723 657.418L312.867 668.488H308.045L309.754 658.278C309.928 657.214 309.792 656.384 309.347 655.788C308.909 655.184 308.203 654.882 307.23 654.882C306.581 654.882 305.985 655.022 305.442 655.301C304.898 655.58 304.442 655.988 304.072 656.524C303.71 657.052 303.465 657.69 303.336 658.437ZM323.391 675.37C321.821 675.37 320.512 675.155 319.463 674.725C318.422 674.302 317.629 673.725 317.086 672.993C316.55 672.261 316.256 671.438 316.203 670.525L320.776 669.925C320.859 670.28 321.017 670.608 321.251 670.91C321.493 671.212 321.836 671.453 322.281 671.634C322.734 671.816 323.319 671.906 324.036 671.906C325.085 671.906 325.998 671.65 326.775 671.136C327.552 670.631 328.031 669.782 328.212 668.59L328.733 665.409H328.529C328.243 665.892 327.85 666.349 327.352 666.779C326.862 667.209 326.262 667.56 325.553 667.831C324.851 668.103 324.04 668.239 323.119 668.239C321.806 668.239 320.666 667.937 319.701 667.333C318.742 666.722 318.048 665.79 317.618 664.537C317.195 663.277 317.143 661.685 317.459 659.761C317.791 657.791 318.388 656.146 319.248 654.826C320.108 653.505 321.127 652.517 322.304 651.86C323.481 651.204 324.707 650.876 325.983 650.876C326.956 650.876 327.741 651.042 328.337 651.374C328.941 651.698 329.405 652.106 329.729 652.596C330.054 653.079 330.284 653.554 330.42 654.022H330.612L331.087 651.102H335.875L332.955 668.658C332.721 670.144 332.159 671.382 331.269 672.37C330.386 673.366 329.265 674.113 327.907 674.611C326.549 675.117 325.043 675.37 323.391 675.37ZM325.202 664.617C325.971 664.617 326.662 664.424 327.273 664.039C327.892 663.647 328.409 663.089 328.824 662.364C329.239 661.632 329.529 660.757 329.695 659.738C329.861 658.72 329.857 657.837 329.684 657.09C329.518 656.335 329.193 655.75 328.71 655.335C328.235 654.92 327.609 654.713 326.832 654.713C326.032 654.713 325.33 654.928 324.726 655.358C324.123 655.78 323.621 656.369 323.221 657.124C322.828 657.878 322.553 658.75 322.395 659.738C322.229 660.742 322.221 661.61 322.372 662.342C322.53 663.066 322.844 663.628 323.311 664.028C323.779 664.421 324.409 664.617 325.202 664.617ZM347.622 668.488L345.788 651.102H350.666L351.413 662.783H351.572L356.326 651.102H361.114L362.019 662.715H362.166L366.762 651.102H371.629L364.011 668.488H358.907L357.729 657.554H357.514L352.715 668.488H347.622ZM378.746 668.827C376.973 668.827 375.505 668.45 374.343 667.695C373.181 666.933 372.362 665.877 371.887 664.526C371.419 663.168 371.332 661.587 371.626 659.784C371.913 658.003 372.509 656.444 373.415 655.109C374.32 653.773 375.471 652.736 376.867 651.996C378.263 651.249 379.836 650.876 381.587 650.876C383.353 650.876 384.817 651.257 385.979 652.019C387.141 652.773 387.959 653.83 388.435 655.188C388.91 656.546 389.001 658.127 388.707 659.931C388.412 661.704 387.809 663.258 386.896 664.594C385.982 665.93 384.832 666.971 383.443 667.718C382.055 668.458 380.489 668.827 378.746 668.827ZM379.221 665.092C380.036 665.092 380.757 664.862 381.383 664.402C382.017 663.934 382.541 663.3 382.957 662.5C383.379 661.693 383.673 660.78 383.839 659.761C384.005 658.757 384.017 657.867 383.873 657.09C383.73 656.305 383.428 655.686 382.968 655.233C382.515 654.781 381.893 654.554 381.1 654.554C380.285 654.554 379.561 654.788 378.927 655.256C378.293 655.716 377.769 656.35 377.354 657.158C376.939 657.965 376.648 658.882 376.482 659.908C376.324 660.904 376.312 661.795 376.448 662.579C376.584 663.357 376.882 663.972 377.342 664.424C377.803 664.87 378.429 665.092 379.221 665.092ZM390.416 668.488L393.313 651.102H397.988L397.479 654.135H397.66C398.158 653.056 398.826 652.241 399.663 651.69C400.508 651.132 401.418 650.853 402.391 650.853C402.633 650.853 402.885 650.868 403.15 650.898C403.421 650.921 403.663 650.959 403.874 651.011L403.15 655.301C402.938 655.226 402.636 655.165 402.244 655.12C401.859 655.067 401.493 655.041 401.146 655.041C400.444 655.041 399.792 655.196 399.188 655.505C398.584 655.807 398.075 656.229 397.66 656.773C397.252 657.316 396.984 657.942 396.856 658.652L395.238 668.488H390.416ZM412.128 645.307L408.28 668.488H403.458L407.306 645.307H412.128ZM418.526 668.771C417.198 668.771 416.055 668.431 415.097 667.752C414.146 667.065 413.467 666.058 413.059 664.73C412.659 663.394 412.622 661.757 412.946 659.817C413.278 657.825 413.874 656.169 414.734 654.848C415.595 653.52 416.613 652.528 417.791 651.872C418.968 651.208 420.194 650.876 421.469 650.876C422.435 650.876 423.216 651.042 423.812 651.374C424.416 651.698 424.88 652.106 425.204 652.596C425.529 653.079 425.755 653.554 425.884 654.022H426.031L427.491 645.307H432.301L428.453 668.488H423.699L424.163 665.703H423.959C423.658 666.186 423.258 666.665 422.76 667.141C422.269 667.609 421.673 667.997 420.971 668.307C420.277 668.616 419.462 668.771 418.526 668.771ZM420.654 664.934C421.424 664.934 422.118 664.722 422.737 664.3C423.356 663.87 423.876 663.27 424.299 662.5C424.722 661.73 425.016 660.829 425.182 659.795C425.355 658.761 425.359 657.863 425.193 657.101C425.027 656.339 424.703 655.75 424.22 655.335C423.744 654.92 423.114 654.713 422.329 654.713C421.537 654.713 420.835 654.928 420.224 655.358C419.62 655.788 419.119 656.384 418.719 657.146C418.326 657.908 418.047 658.791 417.881 659.795C417.715 660.806 417.704 661.7 417.847 662.477C417.991 663.247 418.296 663.851 418.764 664.288C419.232 664.719 419.862 664.934 420.654 664.934ZM448.92 656.06L444.54 656.331C444.517 655.946 444.412 655.603 444.223 655.301C444.042 654.992 443.774 654.747 443.419 654.565C443.072 654.384 442.635 654.294 442.106 654.294C441.314 654.294 440.609 654.475 439.99 654.837C439.371 655.199 439.02 655.663 438.937 656.229C438.869 656.592 438.964 656.897 439.22 657.146C439.477 657.395 439.994 657.607 440.771 657.78L443.827 658.414C445.457 658.761 446.634 659.338 447.358 660.146C448.09 660.953 448.351 662.01 448.139 663.315C447.951 664.424 447.464 665.394 446.679 666.224C445.895 667.047 444.898 667.688 443.691 668.148C442.484 668.601 441.144 668.827 439.673 668.827C437.311 668.827 435.515 668.344 434.285 667.379C433.055 666.413 432.463 665.103 432.508 663.451L437.217 663.202C437.254 663.911 437.503 664.447 437.964 664.809C438.424 665.164 439.054 665.345 439.854 665.352C440.752 665.368 441.514 665.183 442.14 664.798C442.774 664.405 443.133 663.93 443.216 663.372C443.276 662.979 443.163 662.662 442.876 662.421C442.597 662.179 442.084 661.979 441.337 661.821L438.439 661.221C436.794 660.881 435.613 660.274 434.896 659.399C434.179 658.523 433.934 657.41 434.161 656.06C434.342 654.981 434.791 654.056 435.508 653.286C436.232 652.509 437.164 651.913 438.303 651.498C439.45 651.083 440.744 650.876 442.186 650.876C444.442 650.876 446.14 651.34 447.279 652.268C448.426 653.196 448.973 654.46 448.92 656.06ZM469.94 651.102L469.34 654.724H458.609L459.209 651.102H469.94ZM458.757 668.488L461.869 649.845C462.073 648.585 462.488 647.54 463.114 646.71C463.748 645.88 464.529 645.258 465.457 644.843C466.393 644.427 467.404 644.22 468.491 644.22C469.23 644.22 469.898 644.277 470.494 644.39C471.098 644.503 471.536 644.605 471.807 644.695L470.37 648.317C470.189 648.257 469.966 648.2 469.702 648.148C469.438 648.095 469.159 648.068 468.864 648.068C468.163 648.068 467.646 648.234 467.314 648.566C466.989 648.891 466.77 649.347 466.657 649.936L463.567 668.488H458.757ZM477.232 668.827C475.459 668.827 473.991 668.45 472.829 667.695C471.667 666.933 470.848 665.877 470.373 664.526C469.905 663.168 469.818 661.587 470.112 659.784C470.399 658.003 470.995 656.444 471.901 655.109C472.806 653.773 473.957 652.736 475.353 651.996C476.749 651.249 478.322 650.876 480.073 650.876C481.839 650.876 483.303 651.257 484.465 652.019C485.627 652.773 486.446 653.83 486.921 655.188C487.396 656.546 487.487 658.127 487.193 659.931C486.898 661.704 486.295 663.258 485.382 664.594C484.469 665.93 483.318 666.971 481.929 667.718C480.541 668.458 478.975 668.827 477.232 668.827ZM477.707 665.092C478.522 665.092 479.243 664.862 479.869 664.402C480.503 663.934 481.028 663.3 481.443 662.5C481.865 661.693 482.159 660.78 482.326 659.761C482.492 658.757 482.503 657.867 482.359 657.09C482.216 656.305 481.914 655.686 481.454 655.233C481.001 654.781 480.379 654.554 479.586 654.554C478.771 654.554 478.047 654.788 477.413 655.256C476.779 655.716 476.255 656.35 475.84 657.158C475.425 657.965 475.134 658.882 474.968 659.908C474.81 660.904 474.798 661.795 474.934 662.579C475.07 663.357 475.368 663.972 475.828 664.424C476.289 664.87 476.915 665.092 477.707 665.092ZM488.902 668.488L491.799 651.102H496.474L495.965 654.135H496.146C496.644 653.056 497.312 652.241 498.149 651.69C498.995 651.132 499.904 650.853 500.877 650.853C501.119 650.853 501.372 650.868 501.636 650.898C501.907 650.921 502.149 650.959 502.36 651.011L501.636 655.301C501.424 655.226 501.123 655.165 500.73 655.12C500.345 655.067 499.979 655.041 499.632 655.041C498.93 655.041 498.278 655.196 497.674 655.505C497.07 655.807 496.561 656.229 496.146 656.773C495.738 657.316 495.471 657.942 495.342 658.652L493.724 668.488H488.902ZM521.466 651.102L520.866 654.724H510.385L510.996 651.102H521.466ZM514.052 646.937H518.874L516.18 663.145C516.105 663.59 516.116 663.938 516.214 664.187C516.312 664.428 516.475 664.598 516.701 664.696C516.935 664.794 517.214 664.843 517.539 664.843C517.765 664.843 517.995 664.824 518.229 664.786C518.463 664.741 518.64 664.707 518.761 664.685L518.942 668.273C518.671 668.356 518.305 668.446 517.844 668.544C517.392 668.642 516.856 668.703 516.237 668.725C515.06 668.771 514.064 668.616 513.249 668.261C512.434 667.899 511.849 667.345 511.494 666.598C511.14 665.85 511.064 664.911 511.268 663.779L514.052 646.937ZM528.603 658.437L526.928 668.488H522.117L525.966 645.307H530.64L529.192 654.169H529.384C529.942 653.143 530.708 652.339 531.682 651.758C532.655 651.17 533.806 650.876 535.134 650.876C536.341 650.876 537.349 651.14 538.156 651.668C538.971 652.189 539.548 652.939 539.888 653.92C540.228 654.894 540.284 656.06 540.058 657.418L538.201 668.488H533.391L535.089 658.278C535.262 657.207 535.123 656.373 534.67 655.777C534.225 655.18 533.515 654.882 532.542 654.882C531.885 654.882 531.282 655.022 530.731 655.301C530.18 655.58 529.716 655.988 529.339 656.524C528.969 657.052 528.724 657.69 528.603 658.437ZM549.851 668.827C548.071 668.827 546.595 668.465 545.426 667.741C544.256 667.009 543.434 665.975 542.958 664.639C542.49 663.296 542.411 661.708 542.721 659.874C543.022 658.086 543.63 656.516 544.543 655.165C545.464 653.815 546.618 652.762 548.006 652.007C549.395 651.253 550.942 650.876 552.647 650.876C553.794 650.876 554.832 651.06 555.76 651.43C556.696 651.792 557.473 652.343 558.092 653.083C558.71 653.815 559.133 654.732 559.359 655.833C559.593 656.935 559.59 658.225 559.348 659.704L559.133 661.029H544.464L544.928 658.04H555.07C555.183 657.346 555.137 656.731 554.934 656.195C554.73 655.66 554.39 655.241 553.915 654.939C553.44 654.63 552.855 654.475 552.161 654.475C551.451 654.475 550.787 654.649 550.168 654.996C549.55 655.343 549.029 655.799 548.606 656.365C548.191 656.924 547.923 657.531 547.803 658.188L547.271 661.153C547.12 662.066 547.15 662.825 547.361 663.428C547.58 664.032 547.957 664.485 548.493 664.786C549.029 665.081 549.708 665.228 550.531 665.228C551.066 665.228 551.568 665.152 552.036 665.002C552.511 664.851 552.934 664.628 553.304 664.334C553.674 664.032 553.975 663.658 554.209 663.213L558.612 663.507C558.205 664.579 557.586 665.515 556.756 666.315C555.926 667.107 554.926 667.726 553.757 668.171C552.594 668.609 551.293 668.827 549.851 668.827ZM580.69 651.102L580.09 654.724H569.36L569.96 651.102H580.69ZM569.507 668.488L572.62 649.845C572.823 648.585 573.238 647.54 573.865 646.71C574.498 645.88 575.279 645.258 576.208 644.843C577.143 644.427 578.154 644.22 579.241 644.22C579.981 644.22 580.648 644.277 581.245 644.39C581.848 644.503 582.286 644.605 582.558 644.695L581.12 648.317C580.939 648.257 580.716 648.2 580.452 648.148C580.188 648.095 579.909 648.068 579.615 648.068C578.913 648.068 578.396 648.234 578.064 648.566C577.739 648.891 577.521 649.347 577.407 649.936L574.317 668.488H569.507ZM593.11 661.085L594.774 651.102H599.595L596.698 668.488H592.068L592.589 665.33H592.408C591.872 666.349 591.091 667.167 590.065 667.786C589.039 668.405 587.873 668.714 586.567 668.714C585.405 668.714 584.424 668.45 583.624 667.922C582.832 667.394 582.27 666.643 581.938 665.669C581.606 664.696 581.549 663.53 581.768 662.172L583.624 651.102H588.446L586.748 661.312C586.59 662.338 586.733 663.149 587.179 663.745C587.624 664.341 588.303 664.639 589.216 664.639C589.797 664.639 590.359 664.507 590.902 664.243C591.453 663.972 591.929 663.572 592.329 663.043C592.729 662.515 592.989 661.862 593.11 661.085ZM612.7 651.102L612.1 654.724H601.619L602.23 651.102H612.7ZM605.286 646.937H610.108L607.414 663.145C607.338 663.59 607.35 663.938 607.448 664.187C607.546 664.428 607.708 664.598 607.935 664.696C608.169 664.794 608.448 664.843 608.772 664.843C608.999 664.843 609.229 664.824 609.463 664.786C609.697 664.741 609.874 664.707 609.995 664.685L610.176 668.273C609.904 668.356 609.538 668.446 609.078 668.544C608.625 668.642 608.089 668.703 607.471 668.725C606.293 668.771 605.297 668.616 604.482 668.261C603.667 667.899 603.083 667.345 602.728 666.598C602.373 665.85 602.298 664.911 602.502 663.779L605.286 646.937ZM625.326 661.085L626.99 651.102H631.812L628.914 668.488H624.285L624.806 665.33H624.624C624.089 666.349 623.308 667.167 622.281 667.786C621.255 668.405 620.089 668.714 618.784 668.714C617.622 668.714 616.641 668.45 615.841 667.922C615.049 667.394 614.486 666.643 614.154 665.669C613.822 664.696 613.766 663.53 613.985 662.172L615.841 651.102H620.663L618.965 661.312C618.806 662.338 618.95 663.149 619.395 663.745C619.84 664.341 620.519 664.639 621.432 664.639C622.014 664.639 622.576 664.507 623.119 664.243C623.67 663.972 624.145 663.572 624.545 663.043C624.945 662.515 625.205 661.862 625.326 661.085ZM632.771 668.488L635.669 651.102H640.344L639.834 654.135H640.015C640.513 653.056 641.181 652.241 642.019 651.69C642.864 651.132 643.773 650.853 644.747 650.853C644.988 650.853 645.241 650.868 645.505 650.898C645.777 650.921 646.018 650.959 646.229 651.011L645.505 655.301C645.294 655.226 644.992 655.165 644.599 655.12C644.215 655.067 643.849 655.041 643.502 655.041C642.8 655.041 642.147 655.196 641.543 655.505C640.94 655.807 640.43 656.229 640.015 656.773C639.608 657.316 639.34 657.942 639.212 658.652L637.593 668.488H632.771ZM652.882 668.827C651.101 668.827 649.626 668.465 648.456 667.741C647.287 667.009 646.464 665.975 645.989 664.639C645.521 663.296 645.442 661.708 645.751 659.874C646.053 658.086 646.66 656.516 647.574 655.165C648.494 653.815 649.649 652.762 651.037 652.007C652.426 651.253 653.973 650.876 655.678 650.876C656.825 650.876 657.862 651.06 658.791 651.43C659.726 651.792 660.504 652.343 661.122 653.083C661.741 653.815 662.164 654.732 662.39 655.833C662.624 656.935 662.62 658.225 662.379 659.704L662.164 661.029H647.494L647.958 658.04H658.1C658.213 657.346 658.168 656.731 657.964 656.195C657.761 655.66 657.421 655.241 656.946 654.939C656.47 654.63 655.885 654.475 655.191 654.475C654.482 654.475 653.818 654.649 653.199 654.996C652.58 655.343 652.06 655.799 651.637 656.365C651.222 656.924 650.954 657.531 650.833 658.188L650.301 661.153C650.15 662.066 650.181 662.825 650.392 663.428C650.611 664.032 650.988 664.485 651.524 664.786C652.06 665.081 652.739 665.228 653.561 665.228C654.097 665.228 654.599 665.152 655.067 665.002C655.542 664.851 655.965 664.628 656.334 664.334C656.704 664.032 657.006 663.658 657.24 663.213L661.643 663.507C661.236 664.579 660.617 665.515 659.787 666.315C658.957 667.107 657.957 667.726 656.787 668.171C655.625 668.609 654.323 668.827 652.882 668.827Z" fill="black"/>
<g filter="url(#filter0_d_33_14)">
<rect x="412" y="303" width="1140" height="1407" fill="url(#paint0_linear_33_14)" shape-rendering="crispEdges"/>
</g>
<rect x="484.634" y="360.322" width="1003.59" height="1296.52" fill="white"/>
<path d="M483 920L1489.71 1392.38" stroke="black" stroke-opacity="0.39" stroke-width="8"/>
<path d="M483 560L1489.71 1032.38" stroke="black" stroke-opacity="0.39" stroke-width="8"/>
<path d="M483 980L1489.71 1452.38" stroke="black" stroke-opacity="0.39" stroke-width="8"/>
<path d="M483 620L1489.71 1092.38" stroke="black" stroke-opacity="0.39" stroke-width="8"/>
<path d="M483 1040L1489.71 1512.38" stroke="black" stroke-opacity="0.39" stroke-width="8"/>
<path d="M483 680L1489.71 1152.38" stroke="black" stroke-opacity="0.39" stroke-width="8"/>
<path d="M571.771 362.031L1489.71 792.385" stroke="black" stroke-opacity="0.39" stroke-width="8"/>
<path d="M698 359.485L1490.49 730.439" stroke="black" stroke-opacity="0.39" stroke-width="8"/>
<path d="M818 359.485L1488.47 672.669" stroke="black" stroke-opacity="0.39" stroke-width="8"/>
<path d="M928 359.485L1490.01 621.317" stroke="black" stroke-opacity="0.39" stroke-width="8"/>
<path d="M1038 359.485L1487.04 567.826" stroke="black" stroke-opacity="0.39" stroke-width="8"/>
<path d="M1148 359.485L1488.58 516.474" stroke="black" stroke-opacity="0.39" stroke-width="8"/>
<path d="M1258 359.485L1485.6 462.983" stroke="black" stroke-opacity="0.39" stroke-width="8"/>
<path d="M1368 359.485L1487.15 411.631" stroke="black" stroke-opacity="0.39" stroke-width="8"/>
<path d="M483 1100L1489.71 1572.38" stroke="black" stroke-opacity="0.39" stroke-width="8"/>
<path d="M483 740L1489.71 1212.38" stroke="black" stroke-opacity="0.39" stroke-width="8"/>
<path d="M483 380L1489.71 852.385" stroke="black" stroke-opacity="0.39" stroke-width="8"/>
<path d="M483 1160L1489.71 1632.38" stroke="black" stroke-opacity="0.39" stroke-width="8"/>
<path d="M483 800L1489.71 1272.38" stroke="black" stroke-opacity="0.39" stroke-width="8"/>
<path d="M483 440L1489.71 912.385" stroke="black" stroke-opacity="0.39" stroke-width="8"/>
<path d="M483 1220L1404.92 1652.24" stroke="black" stroke-opacity="0.39" stroke-width="8"/>
<path d="M483 860L1486.9 1331.06" stroke="black" stroke-opacity="0.39" stroke-width="8"/>
<path d="M483 500L1487 971.1" stroke="black" stroke-opacity="0.39" stroke-width="8"/>
<path d="M483 1280L1277.68 1651.99" stroke="black" stroke-opacity="0.39" stroke-width="8"/>
<path d="M483 1340L1152.84 1652.89" stroke="black" stroke-opacity="0.39" stroke-width="8"/>
<path d="M483 1400L1029.33 1654.4" stroke="black" stroke-opacity="0.39" stroke-width="8"/>
<path d="M483 1460L900.072 1653.21" stroke="black" stroke-opacity="0.39" stroke-width="8"/>
<path d="M483 1520L771.409 1652.29" stroke="black" stroke-opacity="0.39" stroke-width="8"/>
<path d="M483 1580L645.982 1652.9" stroke="black" stroke-opacity="0.39" stroke-width="8"/>
<rect x="1071" y="1150" width="567" height="806" fill="url(#paint1_radial_33_14)"/>
<path d="M1128 1304C1128 1281.91 1145.91 1264 1168 1264H1581V1669H1128V1304Z" fill="#959595"/>
<rect x="1197" y="1624" width="263" height="21" transform="rotate(90 1197 1624)" fill="#D9D9D9"/>
<rect x="1191" y="1877" width="263" height="21" fill="#D9D9D9"/>
<rect x="1247" y="1833" width="263" height="21" fill="#D9D9D9"/>
<rect x="1310" y="1780" width="263" height="21" fill="#D9D9D9"/>
<rect x="1258" y="1626" width="224" height="21" transform="rotate(90 1258 1626)" fill="#D9D9D9"/>
<rect x="1320" y="1626" width="168" height="21" transform="rotate(90 1320 1626)" fill="#D9D9D9"/>
<rect x="1444" y="1626" width="85" height="21" transform="rotate(90 1444 1626)" fill="#D9D9D9"/>
<path d="M1286.48 1543H1251.98L1304.55 1390.73H1346.04L1398.53 1543H1364.03L1325.89 1425.52H1324.7L1286.48 1543ZM1284.32 1483.15H1365.81V1508.28H1284.32V1483.15ZM1449.05 1390.73V1543H1416.86V1390.73H1449.05Z" fill="#DF071E"/>
<circle cx="1185" cy="1626" r="25" fill="#070707"/>
<circle cx="1185" cy="1886" r="25" fill="#070707"/>
<circle cx="1247" cy="1626" r="25" fill="#070707"/>
<circle cx="1247" cy="1836" r="25" fill="#070707"/>
<circle cx="1309" cy="1626" r="25" fill="#070707"/>
<circle cx="1309" cy="1784" r="25" fill="#070707"/>
<circle cx="1371" cy="1626" r="25" fill="#5B1A1C"/>
<circle cx="1434" cy="1720" r="25" fill="#5B1A1C"/>
<circle cx="1433" cy="1626" r="25" fill="#070707"/>
<rect x="1438" y="1770" width="143" height="138" fill="#070707"/>
<path d="M1494.15 1835.82H1489.48C1489.4 1835.22 1489.22 1834.68 1488.96 1834.21C1488.7 1833.74 1488.36 1833.33 1487.95 1833C1487.53 1832.66 1487.06 1832.41 1486.52 1832.23C1485.99 1832.05 1485.41 1831.96 1484.78 1831.96C1483.65 1831.96 1482.67 1832.24 1481.83 1832.81C1480.99 1833.36 1480.34 1834.17 1479.88 1835.23C1479.42 1836.29 1479.19 1837.58 1479.19 1839.09C1479.19 1840.65 1479.42 1841.95 1479.88 1843.01C1480.35 1844.07 1481 1844.87 1481.84 1845.41C1482.68 1845.95 1483.65 1846.22 1484.75 1846.22C1485.37 1846.22 1485.94 1846.14 1486.47 1845.97C1487 1845.81 1487.47 1845.57 1487.88 1845.26C1488.29 1844.94 1488.64 1844.55 1488.91 1844.1C1489.18 1843.64 1489.37 1843.12 1489.48 1842.54L1494.15 1842.56C1494.03 1843.57 1493.72 1844.53 1493.24 1845.46C1492.77 1846.38 1492.12 1847.21 1491.31 1847.94C1490.51 1848.67 1489.55 1849.24 1488.44 1849.67C1487.33 1850.09 1486.08 1850.3 1484.68 1850.3C1482.73 1850.3 1480.99 1849.86 1479.46 1848.98C1477.93 1848.1 1476.72 1846.82 1475.83 1845.15C1474.95 1843.48 1474.51 1841.46 1474.51 1839.09C1474.51 1836.71 1474.96 1834.69 1475.86 1833.02C1476.75 1831.35 1477.96 1830.08 1479.5 1829.2C1481.03 1828.32 1482.76 1827.88 1484.68 1827.88C1485.94 1827.88 1487.11 1828.06 1488.19 1828.42C1489.28 1828.77 1490.24 1829.29 1491.08 1829.97C1491.92 1830.65 1492.6 1831.47 1493.12 1832.45C1493.66 1833.43 1494 1834.56 1494.15 1835.82ZM1497.45 1850V1828.18H1502.07V1837.18H1511.43V1828.18H1516.03V1850H1511.43V1840.99H1502.07V1850H1497.45ZM1524.45 1828.18V1850H1519.84V1828.18H1524.45ZM1528.25 1850V1828.18H1536.85C1538.51 1828.18 1539.92 1828.5 1541.08 1829.13C1542.25 1829.75 1543.14 1830.62 1543.75 1831.74C1544.36 1832.85 1544.67 1834.13 1544.67 1835.58C1544.67 1837.02 1544.36 1838.3 1543.74 1839.41C1543.11 1840.52 1542.21 1841.38 1541.02 1842C1539.84 1842.62 1538.41 1842.93 1536.74 1842.93H1531.25V1839.23H1535.99C1536.88 1839.23 1537.61 1839.08 1538.19 1838.77C1538.77 1838.46 1539.2 1838.03 1539.49 1837.48C1539.78 1836.93 1539.92 1836.29 1539.92 1835.58C1539.92 1834.85 1539.78 1834.22 1539.49 1833.68C1539.2 1833.13 1538.77 1832.71 1538.19 1832.41C1537.6 1832.11 1536.86 1831.95 1535.97 1831.95H1532.86V1850H1528.25Z" fill="white"/>
<circle cx="639.816" cy="1423.18" r="398.184" transform="rotate(-50.2845 639.816 1423.18)" fill="#DEC7C7"/>
<circle cx="570.616" cy="1365.7" r="306.749" transform="rotate(-50.2845 570.616 1365.7)" fill="#070707"/>
<circle cx="482.498" cy="1292.5" r="192.636" transform="rotate(-50.2845 482.498 1292.5)" fill="#D9D9D9"/>
<circle cx="436.348" cy="1253.5" r="132.212" transform="rotate(-50.2845 436.348 1253.5)" fill="#DF071E"/>
<rect x="229" y="237" width="742.667" height="519.548" fill="#070707"/>
<path d="M790.377 687.153C790.377 636.802 770.375 588.514 734.772 552.91C699.169 517.307 650.881 497.305 600.53 497.305C550.179 497.305 501.891 517.307 466.288 552.91C430.684 588.514 410.683 636.802 410.683 687.153L600.53 687.153H790.377Z" fill="#A40718"/>
<path d="M426.301 601.295C358.468 575.697 268.628 620.967 232.188 646.801V757.368H971.667L968.823 608.227C968.823 598.806 971.667 594.184 943.404 610.005C910.139 628.625 842.614 664.044 788.575 655.334C734.536 646.624 742.002 630.803 702.539 628.314C663.077 625.826 697.74 646.801 610.46 655.334C523.18 663.866 511.092 633.292 426.301 601.295Z" fill="#5B1A1C" stroke="#5B1A1C" stroke-width="7.11038"/>
<path d="M299.689 718.488L303.537 695.307H312.819C314.524 695.307 315.905 695.559 316.962 696.065C318.026 696.571 318.769 697.272 319.192 698.17C319.614 699.061 319.727 700.087 319.531 701.249C319.373 702.155 319.052 702.947 318.569 703.626C318.094 704.305 317.505 704.864 316.803 705.301C316.101 705.739 315.339 706.048 314.517 706.229L314.472 706.456C315.347 706.493 316.135 706.743 316.837 707.203C317.539 707.656 318.063 708.297 318.411 709.127C318.758 709.957 318.837 710.942 318.648 712.081C318.444 713.311 317.958 714.409 317.188 715.375C316.418 716.333 315.392 717.092 314.109 717.65C312.834 718.209 311.329 718.488 309.593 718.488H299.689ZM305.269 714.481H309.265C310.623 714.481 311.661 714.217 312.378 713.689C313.094 713.16 313.525 712.462 313.668 711.595C313.766 710.953 313.702 710.387 313.475 709.897C313.257 709.406 312.883 709.021 312.355 708.742C311.834 708.463 311.174 708.323 310.374 708.323H306.277L305.269 714.481ZM306.843 705.007H310.476C311.14 705.007 311.755 704.89 312.321 704.656C312.894 704.415 313.366 704.075 313.736 703.637C314.113 703.192 314.351 702.668 314.449 702.064C314.585 701.219 314.396 700.543 313.883 700.038C313.377 699.525 312.585 699.268 311.506 699.268H307.793L306.843 705.007ZM333.054 711.085L334.718 701.102H339.54L336.643 718.488H332.013L332.534 715.33H332.353C331.817 716.349 331.036 717.167 330.01 717.786C328.983 718.405 327.818 718.714 326.512 718.714C325.35 718.714 324.369 718.45 323.569 717.922C322.777 717.394 322.215 716.643 321.883 715.669C321.551 714.696 321.494 713.53 321.713 712.172L323.569 701.102H328.391L326.693 711.312C326.535 712.338 326.678 713.149 327.123 713.745C327.568 714.341 328.248 714.639 329.161 714.639C329.742 714.639 330.304 714.507 330.847 714.243C331.398 713.972 331.873 713.572 332.273 713.043C332.673 712.515 332.934 711.862 333.054 711.085ZM340.499 718.488L343.397 701.102H348.219L345.321 718.488H340.499ZM346.306 698.838C345.589 698.838 344.997 698.6 344.529 698.125C344.069 697.642 343.88 697.069 343.963 696.405C344.046 695.725 344.371 695.152 344.936 694.684C345.502 694.209 346.144 693.971 346.861 693.971C347.578 693.971 348.162 694.209 348.615 694.684C349.068 695.152 349.257 695.725 349.181 696.405C349.106 697.069 348.785 697.642 348.219 698.125C347.661 698.6 347.023 698.838 346.306 698.838ZM357.854 695.307L354.006 718.488H349.184L353.032 695.307H357.854ZM364.252 718.771C362.924 718.771 361.781 718.431 360.823 717.752C359.872 717.065 359.193 716.058 358.785 714.73C358.385 713.394 358.348 711.757 358.672 709.817C359.004 707.825 359.6 706.169 360.46 704.848C361.321 703.52 362.339 702.528 363.517 701.872C364.694 701.208 365.92 700.876 367.195 700.876C368.161 700.876 368.942 701.042 369.538 701.374C370.142 701.698 370.606 702.106 370.93 702.596C371.255 703.079 371.481 703.554 371.61 704.022H371.757L373.217 695.307H378.027L374.179 718.488H369.425L369.889 715.703H369.685C369.383 716.186 368.984 716.665 368.486 717.141C367.995 717.609 367.399 717.997 366.697 718.307C366.003 718.616 365.188 718.771 364.252 718.771ZM366.38 714.934C367.15 714.934 367.844 714.722 368.463 714.3C369.082 713.87 369.602 713.27 370.025 712.5C370.447 711.73 370.742 710.829 370.908 709.795C371.081 708.761 371.085 707.863 370.919 707.101C370.753 706.339 370.429 705.75 369.946 705.335C369.47 704.92 368.84 704.713 368.055 704.713C367.263 704.713 366.561 704.928 365.95 705.358C365.346 705.788 364.845 706.384 364.445 707.146C364.052 707.908 363.773 708.791 363.607 709.795C363.441 710.806 363.43 711.7 363.573 712.477C363.716 713.247 364.022 713.851 364.49 714.288C364.958 714.719 365.588 714.934 366.38 714.934ZM378.132 718.488L381.03 701.102H385.852L382.954 718.488H378.132ZM383.939 698.838C383.222 698.838 382.629 698.6 382.162 698.125C381.701 697.642 381.513 697.069 381.596 696.405C381.679 695.725 382.003 695.152 382.569 694.684C383.135 694.209 383.776 693.971 384.493 693.971C385.21 693.971 385.795 694.209 386.248 694.684C386.701 695.152 386.889 695.725 386.814 696.405C386.738 697.069 386.418 697.642 385.852 698.125C385.293 698.6 384.656 698.838 383.939 698.838ZM393.336 708.437L391.661 718.488H386.851L389.748 701.102H394.332L393.834 704.169H394.027C394.578 703.151 395.355 702.347 396.358 701.758C397.37 701.17 398.52 700.876 399.811 700.876C401.018 700.876 402.025 701.14 402.833 701.668C403.648 702.196 404.221 702.947 404.553 703.92C404.893 704.894 404.949 706.06 404.723 707.418L402.867 718.488H398.045L399.754 708.278C399.928 707.214 399.792 706.384 399.347 705.788C398.909 705.184 398.203 704.882 397.23 704.882C396.581 704.882 395.985 705.022 395.442 705.301C394.898 705.58 394.442 705.988 394.072 706.524C393.71 707.052 393.465 707.69 393.336 708.437ZM413.391 725.37C411.821 725.37 410.512 725.155 409.463 724.725C408.422 724.302 407.629 723.725 407.086 722.993C406.55 722.261 406.256 721.438 406.203 720.525L410.776 719.925C410.859 720.28 411.017 720.608 411.251 720.91C411.493 721.212 411.836 721.453 412.281 721.634C412.734 721.816 413.319 721.906 414.036 721.906C415.085 721.906 415.998 721.65 416.775 721.136C417.552 720.631 418.031 719.782 418.212 718.59L418.733 715.409H418.529C418.243 715.892 417.85 716.349 417.352 716.779C416.862 717.209 416.262 717.56 415.553 717.831C414.851 718.103 414.04 718.239 413.119 718.239C411.806 718.239 410.666 717.937 409.701 717.333C408.742 716.722 408.048 715.79 407.618 714.537C407.195 713.277 407.143 711.685 407.459 709.761C407.791 707.791 408.388 706.146 409.248 704.826C410.108 703.505 411.127 702.517 412.304 701.86C413.481 701.204 414.707 700.876 415.983 700.876C416.956 700.876 417.741 701.042 418.337 701.374C418.941 701.698 419.405 702.106 419.729 702.596C420.054 703.079 420.284 703.554 420.42 704.022H420.612L421.087 701.102H425.875L422.955 718.658C422.721 720.144 422.159 721.382 421.269 722.37C420.386 723.366 419.265 724.113 417.907 724.611C416.549 725.117 415.043 725.37 413.391 725.37ZM415.202 714.617C415.971 714.617 416.662 714.424 417.273 714.039C417.892 713.647 418.409 713.089 418.824 712.364C419.239 711.632 419.529 710.757 419.695 709.738C419.861 708.72 419.857 707.837 419.684 707.09C419.518 706.335 419.193 705.75 418.71 705.335C418.235 704.92 417.609 704.713 416.832 704.713C416.032 704.713 415.33 704.928 414.726 705.358C414.123 705.78 413.621 706.369 413.221 707.124C412.828 707.878 412.553 708.75 412.395 709.738C412.229 710.742 412.221 711.61 412.372 712.342C412.53 713.066 412.844 713.628 413.311 714.028C413.779 714.421 414.409 714.617 415.202 714.617ZM437.622 718.488L435.788 701.102H440.666L441.413 712.783H441.572L446.326 701.102H451.114L452.019 712.715H452.166L456.762 701.102H461.629L454.011 718.488H448.907L447.729 707.554H447.514L442.715 718.488H437.622ZM468.746 718.827C466.973 718.827 465.505 718.45 464.343 717.695C463.181 716.933 462.362 715.877 461.887 714.526C461.419 713.168 461.332 711.587 461.626 709.784C461.913 708.003 462.509 706.444 463.415 705.109C464.32 703.773 465.471 702.736 466.867 701.996C468.263 701.249 469.836 700.876 471.587 700.876C473.353 700.876 474.817 701.257 475.979 702.019C477.141 702.773 477.959 703.83 478.435 705.188C478.91 706.546 479.001 708.127 478.707 709.931C478.412 711.704 477.809 713.258 476.896 714.594C475.982 715.93 474.832 716.971 473.443 717.718C472.055 718.458 470.489 718.827 468.746 718.827ZM469.221 715.092C470.036 715.092 470.757 714.862 471.383 714.402C472.017 713.934 472.541 713.3 472.957 712.5C473.379 711.693 473.673 710.78 473.839 709.761C474.005 708.757 474.017 707.867 473.873 707.09C473.73 706.305 473.428 705.686 472.968 705.233C472.515 704.781 471.893 704.554 471.1 704.554C470.285 704.554 469.561 704.788 468.927 705.256C468.293 705.716 467.769 706.35 467.354 707.158C466.939 707.965 466.648 708.882 466.482 709.908C466.324 710.904 466.312 711.795 466.448 712.579C466.584 713.357 466.882 713.972 467.342 714.424C467.803 714.87 468.429 715.092 469.221 715.092ZM480.416 718.488L483.313 701.102H487.988L487.479 704.135H487.66C488.158 703.056 488.826 702.241 489.663 701.69C490.508 701.132 491.418 700.853 492.391 700.853C492.633 700.853 492.885 700.868 493.15 700.898C493.421 700.921 493.663 700.959 493.874 701.011L493.15 705.301C492.938 705.226 492.636 705.165 492.244 705.12C491.859 705.067 491.493 705.041 491.146 705.041C490.444 705.041 489.792 705.196 489.188 705.505C488.584 705.807 488.075 706.229 487.66 706.773C487.252 707.316 486.984 707.942 486.856 708.652L485.238 718.488H480.416ZM502.128 695.307L498.28 718.488H493.458L497.306 695.307H502.128ZM508.526 718.771C507.198 718.771 506.055 718.431 505.097 717.752C504.146 717.065 503.467 716.058 503.059 714.73C502.659 713.394 502.622 711.757 502.946 709.817C503.278 707.825 503.874 706.169 504.734 704.848C505.595 703.52 506.613 702.528 507.791 701.872C508.968 701.208 510.194 700.876 511.469 700.876C512.435 700.876 513.216 701.042 513.812 701.374C514.416 701.698 514.88 702.106 515.204 702.596C515.529 703.079 515.755 703.554 515.884 704.022H516.031L517.491 695.307H522.301L518.453 718.488H513.699L514.163 715.703H513.959C513.658 716.186 513.258 716.665 512.76 717.141C512.269 717.609 511.673 717.997 510.971 718.307C510.277 718.616 509.462 718.771 508.526 718.771ZM510.654 714.934C511.424 714.934 512.118 714.722 512.737 714.3C513.356 713.87 513.876 713.27 514.299 712.5C514.722 711.73 515.016 710.829 515.182 709.795C515.355 708.761 515.359 707.863 515.193 707.101C515.027 706.339 514.703 705.75 514.22 705.335C513.744 704.92 513.114 704.713 512.329 704.713C511.537 704.713 510.835 704.928 510.224 705.358C509.62 705.788 509.119 706.384 508.719 707.146C508.326 707.908 508.047 708.791 507.881 709.795C507.715 710.806 507.704 711.7 507.847 712.477C507.991 713.247 508.296 713.851 508.764 714.288C509.232 714.719 509.862 714.934 510.654 714.934ZM538.92 706.06L534.54 706.331C534.517 705.946 534.412 705.603 534.223 705.301C534.042 704.992 533.774 704.747 533.419 704.565C533.072 704.384 532.635 704.294 532.106 704.294C531.314 704.294 530.609 704.475 529.99 704.837C529.371 705.199 529.02 705.663 528.937 706.229C528.869 706.592 528.964 706.897 529.22 707.146C529.477 707.395 529.994 707.607 530.771 707.78L533.827 708.414C535.457 708.761 536.634 709.338 537.358 710.146C538.09 710.953 538.351 712.01 538.139 713.315C537.951 714.424 537.464 715.394 536.679 716.224C535.895 717.047 534.898 717.688 533.691 718.148C532.484 718.601 531.144 718.827 529.673 718.827C527.311 718.827 525.515 718.344 524.285 717.379C523.055 716.413 522.463 715.103 522.508 713.451L527.217 713.202C527.254 713.911 527.503 714.447 527.964 714.809C528.424 715.164 529.054 715.345 529.854 715.352C530.752 715.368 531.514 715.183 532.14 714.798C532.774 714.405 533.133 713.93 533.216 713.372C533.276 712.979 533.163 712.662 532.876 712.421C532.597 712.179 532.084 711.979 531.337 711.821L528.439 711.221C526.794 710.881 525.613 710.274 524.896 709.399C524.179 708.523 523.934 707.41 524.161 706.06C524.342 704.981 524.791 704.056 525.508 703.286C526.232 702.509 527.164 701.913 528.303 701.498C529.45 701.083 530.744 700.876 532.186 700.876C534.442 700.876 536.14 701.34 537.279 702.268C538.426 703.196 538.973 704.46 538.92 706.06ZM559.94 701.102L559.34 704.724H548.609L549.209 701.102H559.94ZM548.757 718.488L551.869 699.845C552.073 698.585 552.488 697.54 553.114 696.71C553.748 695.88 554.529 695.258 555.457 694.843C556.393 694.427 557.404 694.22 558.491 694.22C559.23 694.22 559.898 694.277 560.494 694.39C561.098 694.503 561.536 694.605 561.807 694.695L560.37 698.317C560.189 698.257 559.966 698.2 559.702 698.148C559.438 698.095 559.159 698.068 558.864 698.068C558.163 698.068 557.646 698.234 557.314 698.566C556.989 698.891 556.77 699.347 556.657 699.936L553.567 718.488H548.757ZM567.232 718.827C565.459 718.827 563.991 718.45 562.829 717.695C561.667 716.933 560.848 715.877 560.373 714.526C559.905 713.168 559.818 711.587 560.112 709.784C560.399 708.003 560.995 706.444 561.901 705.109C562.806 703.773 563.957 702.736 565.353 701.996C566.749 701.249 568.322 700.876 570.073 700.876C571.839 700.876 573.303 701.257 574.465 702.019C575.627 702.773 576.446 703.83 576.921 705.188C577.396 706.546 577.487 708.127 577.193 709.931C576.898 711.704 576.295 713.258 575.382 714.594C574.469 715.93 573.318 716.971 571.929 717.718C570.541 718.458 568.975 718.827 567.232 718.827ZM567.707 715.092C568.522 715.092 569.243 714.862 569.869 714.402C570.503 713.934 571.028 713.3 571.443 712.5C571.865 711.693 572.159 710.78 572.326 709.761C572.492 708.757 572.503 707.867 572.359 707.09C572.216 706.305 571.914 705.686 571.454 705.233C571.001 704.781 570.379 704.554 569.586 704.554C568.771 704.554 568.047 704.788 567.413 705.256C566.779 705.716 566.255 706.35 565.84 707.158C565.425 707.965 565.134 708.882 564.968 709.908C564.81 710.904 564.798 711.795 564.934 712.579C565.07 713.357 565.368 713.972 565.828 714.424C566.289 714.87 566.915 715.092 567.707 715.092ZM578.902 718.488L581.799 701.102H586.474L585.965 704.135H586.146C586.644 703.056 587.312 702.241 588.149 701.69C588.995 701.132 589.904 700.853 590.877 700.853C591.119 700.853 591.372 700.868 591.636 700.898C591.907 700.921 592.149 700.959 592.36 701.011L591.636 705.301C591.424 705.226 591.123 705.165 590.73 705.12C590.345 705.067 589.979 705.041 589.632 705.041C588.93 705.041 588.278 705.196 587.674 705.505C587.07 705.807 586.561 706.229 586.146 706.773C585.738 707.316 585.471 707.942 585.342 708.652L583.724 718.488H578.902ZM611.466 701.102L610.866 704.724H600.385L600.996 701.102H611.466ZM604.052 696.937H608.874L606.18 713.145C606.105 713.59 606.116 713.938 606.214 714.187C606.312 714.428 606.475 714.598 606.701 714.696C606.935 714.794 607.214 714.843 607.539 714.843C607.765 714.843 607.995 714.824 608.229 714.786C608.463 714.741 608.64 714.707 608.761 714.685L608.942 718.273C608.671 718.356 608.305 718.446 607.844 718.544C607.392 718.642 606.856 718.703 606.237 718.725C605.06 718.771 604.064 718.616 603.249 718.261C602.434 717.899 601.849 717.345 601.494 716.598C601.14 715.85 601.064 714.911 601.268 713.779L604.052 696.937ZM618.603 708.437L616.928 718.488H612.117L615.966 695.307H620.64L619.192 704.169H619.384C619.942 703.143 620.708 702.339 621.682 701.758C622.655 701.17 623.806 700.876 625.134 700.876C626.341 700.876 627.349 701.14 628.156 701.668C628.971 702.189 629.548 702.939 629.888 703.92C630.228 704.894 630.284 706.06 630.058 707.418L628.201 718.488H623.391L625.089 708.278C625.262 707.207 625.123 706.373 624.67 705.777C624.225 705.18 623.515 704.882 622.542 704.882C621.885 704.882 621.282 705.022 620.731 705.301C620.18 705.58 619.716 705.988 619.339 706.524C618.969 707.052 618.724 707.69 618.603 708.437ZM639.851 718.827C638.071 718.827 636.595 718.465 635.426 717.741C634.256 717.009 633.434 715.975 632.958 714.639C632.49 713.296 632.411 711.708 632.721 709.874C633.022 708.086 633.63 706.516 634.543 705.165C635.464 703.815 636.618 702.762 638.006 702.007C639.395 701.253 640.942 700.876 642.647 700.876C643.794 700.876 644.832 701.06 645.76 701.43C646.696 701.792 647.473 702.343 648.092 703.083C648.71 703.815 649.133 704.732 649.359 705.833C649.593 706.935 649.59 708.225 649.348 709.704L649.133 711.029H634.464L634.928 708.04H645.07C645.183 707.346 645.137 706.731 644.934 706.195C644.73 705.66 644.39 705.241 643.915 704.939C643.44 704.63 642.855 704.475 642.161 704.475C641.451 704.475 640.787 704.649 640.168 704.996C639.55 705.343 639.029 705.799 638.606 706.365C638.191 706.924 637.923 707.531 637.803 708.188L637.271 711.153C637.12 712.066 637.15 712.825 637.361 713.428C637.58 714.032 637.957 714.485 638.493 714.786C639.029 715.081 639.708 715.228 640.531 715.228C641.066 715.228 641.568 715.152 642.036 715.002C642.511 714.851 642.934 714.628 643.304 714.334C643.674 714.032 643.975 713.658 644.209 713.213L648.612 713.507C648.205 714.579 647.586 715.515 646.756 716.315C645.926 717.107 644.926 717.726 643.757 718.171C642.594 718.609 641.293 718.827 639.851 718.827ZM670.69 701.102L670.09 704.724H659.36L659.96 701.102H670.69ZM659.507 718.488L662.62 699.845C662.823 698.585 663.238 697.54 663.865 696.71C664.498 695.88 665.279 695.258 666.208 694.843C667.143 694.427 668.154 694.22 669.241 694.22C669.981 694.22 670.648 694.277 671.245 694.39C671.848 694.503 672.286 694.605 672.558 694.695L671.12 698.317C670.939 698.257 670.716 698.2 670.452 698.148C670.188 698.095 669.909 698.068 669.615 698.068C668.913 698.068 668.396 698.234 668.064 698.566C667.739 698.891 667.521 699.347 667.407 699.936L664.317 718.488H659.507ZM683.11 711.085L684.774 701.102H689.595L686.698 718.488H682.068L682.589 715.33H682.408C681.872 716.349 681.091 717.167 680.065 717.786C679.039 718.405 677.873 718.714 676.567 718.714C675.405 718.714 674.424 718.45 673.624 717.922C672.832 717.394 672.27 716.643 671.938 715.669C671.606 714.696 671.549 713.53 671.768 712.172L673.624 701.102H678.446L676.748 711.312C676.59 712.338 676.733 713.149 677.179 713.745C677.624 714.341 678.303 714.639 679.216 714.639C679.797 714.639 680.359 714.507 680.902 714.243C681.453 713.972 681.929 713.572 682.329 713.043C682.729 712.515 682.989 711.862 683.11 711.085ZM702.7 701.102L702.1 704.724H691.619L692.23 701.102H702.7ZM695.286 696.937H700.108L697.414 713.145C697.338 713.59 697.35 713.938 697.448 714.187C697.546 714.428 697.708 714.598 697.935 714.696C698.169 714.794 698.448 714.843 698.772 714.843C698.999 714.843 699.229 714.824 699.463 714.786C699.697 714.741 699.874 714.707 699.995 714.685L700.176 718.273C699.904 718.356 699.538 718.446 699.078 718.544C698.625 718.642 698.089 718.703 697.471 718.725C696.293 718.771 695.297 718.616 694.482 718.261C693.667 717.899 693.083 717.345 692.728 716.598C692.373 715.85 692.298 714.911 692.502 713.779L695.286 696.937ZM715.326 711.085L716.99 701.102H721.812L718.914 718.488H714.285L714.806 715.33H714.624C714.089 716.349 713.308 717.167 712.281 717.786C711.255 718.405 710.089 718.714 708.784 718.714C707.622 718.714 706.641 718.45 705.841 717.922C705.049 717.394 704.486 716.643 704.154 715.669C703.822 714.696 703.766 713.53 703.985 712.172L705.841 701.102H710.663L708.965 711.312C708.806 712.338 708.95 713.149 709.395 713.745C709.84 714.341 710.519 714.639 711.432 714.639C712.014 714.639 712.576 714.507 713.119 714.243C713.67 713.972 714.145 713.572 714.545 713.043C714.945 712.515 715.205 711.862 715.326 711.085ZM722.771 718.488L725.669 701.102H730.344L729.834 704.135H730.015C730.513 703.056 731.181 702.241 732.019 701.69C732.864 701.132 733.773 700.853 734.747 700.853C734.988 700.853 735.241 700.868 735.505 700.898C735.777 700.921 736.018 700.959 736.229 701.011L735.505 705.301C735.294 705.226 734.992 705.165 734.599 705.12C734.215 705.067 733.849 705.041 733.502 705.041C732.8 705.041 732.147 705.196 731.543 705.505C730.94 705.807 730.43 706.229 730.015 706.773C729.608 707.316 729.34 707.942 729.212 708.652L727.593 718.488H722.771ZM742.882 718.827C741.101 718.827 739.626 718.465 738.456 717.741C737.287 717.009 736.464 715.975 735.989 714.639C735.521 713.296 735.442 711.708 735.751 709.874C736.053 708.086 736.66 706.516 737.574 705.165C738.494 703.815 739.649 702.762 741.037 702.007C742.426 701.253 743.973 700.876 745.678 700.876C746.825 700.876 747.862 701.06 748.791 701.43C749.726 701.792 750.504 702.343 751.122 703.083C751.741 703.815 752.164 704.732 752.39 705.833C752.624 706.935 752.62 708.225 752.379 709.704L752.164 711.029H737.494L737.958 708.04H748.1C748.213 707.346 748.168 706.731 747.964 706.195C747.761 705.66 747.421 705.241 746.946 704.939C746.47 704.63 745.885 704.475 745.191 704.475C744.482 704.475 743.818 704.649 743.199 704.996C742.58 705.343 742.06 705.799 741.637 706.365C741.222 706.924 740.954 707.531 740.833 708.188L740.301 711.153C740.15 712.066 740.181 712.825 740.392 713.428C740.611 714.032 740.988 714.485 741.524 714.786C742.06 715.081 742.739 715.228 743.561 715.228C744.097 715.228 744.599 715.152 745.067 715.002C745.542 714.851 745.965 714.628 746.334 714.334C746.704 714.032 747.006 713.658 747.24 713.213L751.643 713.507C751.236 714.579 750.617 715.515 749.787 716.315C748.957 717.107 747.957 717.726 746.787 718.171C745.625 718.609 744.323 718.827 742.882 718.827Z" fill="black"/>
<rect x="898" y="440" width="890" height="514" rx="60" fill="#888888"/>
<rect x="1029" y="607" width="21" height="169" fill="#D9D9D9"/>
<rect x="1087" y="607" width="21" height="169" fill="#D9D9D9"/>
<rect x="1381" y="608" width="21" height="169" fill="#D9D9D9"/>
<rect x="1691" y="608" width="21" height="169" fill="#D9D9D9"/>
<rect x="1328" y="607" width="21" height="169" transform="rotate(90 1328 607)" fill="#D9D9D9"/>
<rect x="1329" y="676" width="21" height="169" transform="rotate(90 1329 676)" fill="#D9D9D9"/>
<rect x="1330" y="755" width="21" height="169" transform="rotate(90 1330 755)" fill="#D9D9D9"/>
<rect x="972" y="607" width="21" height="169" fill="#D9D9D9"/>
<rect x="1539" y="676" width="21" height="121" transform="rotate(90 1539 676)" fill="#D9D9D9"/>
<rect x="1709" y="676" width="21" height="121" transform="rotate(90 1709 676)" fill="#D9D9D9"/>
<rect x="1709" y="608" width="21" height="121" transform="rotate(90 1709 608)" fill="#D9D9D9"/>
<rect x="1540" y="756" width="21" height="122" transform="rotate(90 1540 756)" fill="#D9D9D9"/>
<rect x="1710" y="756" width="21" height="122" transform="rotate(90 1710 756)" fill="#D9D9D9"/>
<defs>
<filter id="filter0_d_33_14" x="408" y="303" width="1148" height="1415" filterUnits="userSpaceOnUse" color-interpolation-filters="sRGB">
<feFlood flood-opacity="0" result="BackgroundImageFix"/>
<feColorMatrix in="SourceAlpha" type="matrix" values="0 0 0 0 0 0 0 0 0 0 0 0 0 0 0 0 0 0 127 0" result="hardAlpha"/>
<feOffset dy="4"/>
<feGaussianBlur stdDeviation="2"/>
<feComposite in2="hardAlpha" operator="out"/>
<feColorMatrix type="matrix" values="0 0 0 0 0 0 0 0 0 0 0 0 0 0 0 0 0 0 0.4 0"/>
<feBlend mode="normal" in2="BackgroundImageFix" result="effect1_dropShadow_33_14"/>
<feBlend mode="normal" in="SourceGraphic" in2="effect1_dropShadow_33_14" result="shape"/>
</filter>
<linearGradient id="paint0_linear_33_14" x1="412" y1="1006.5" x2="1552" y2="1006.5" gradientUnits="userSpaceOnUse">
<stop stop-color="#343434"/>
<stop offset="1" stop-color="#3C3C3C" stop-opacity="0.84"/>
</linearGradient>
<radialGradient id="paint1_radial_33_14" cx="0" cy="0" r="1" gradientUnits="userSpaceOnUse" gradientTransform="translate(1355 1729) rotate(90.1262) scale(227.001 159.689)">
<stop stop-color="#135522"/>
<stop offset="1" stop-color="#007A1B"/>
</radialGradient>
</defs>
</svg>
